<svg width="960" height="195" viewBox="0 0 960 195" fill="none" xmlns="http://www.w3.org/2000/svg">
<path d="M921.112 153.8C913.612 153.8 906.912 152.15 901.012 148.85C895.212 145.45 890.662 140.8 887.362 134.9C884.062 129 882.412 122.2 882.412 114.5C882.412 106.8 884.012 100 887.212 94.1C890.512 88.2 895.062 83.5999 900.862 80.2999C906.662 76.8999 913.312 75.2 920.812 75.2C928.312 75.2 934.962 76.8999 940.762 80.2999C946.562 83.5999 951.062 88.2 954.262 94.1C957.562 100 959.212 106.8 959.212 114.5C959.212 122.2 957.612 129 954.412 134.9C951.212 140.8 946.712 145.45 940.912 148.85C935.112 152.15 928.512 153.8 921.112 153.8ZM921.112 138.35C925.212 138.35 928.862 137.35 932.062 135.35C935.262 133.25 937.762 130.45 939.562 126.95C941.362 123.35 942.262 119.2 942.262 114.5C942.262 109.8 941.312 105.7 939.412 102.2C937.612 98.5999 935.112 95.7999 931.912 93.7999C928.712 91.6999 925.012 90.65 920.812 90.65C916.612 90.65 912.912 91.65 909.712 93.6499C906.512 95.6499 904.012 98.45 902.212 102.05C900.412 105.65 899.512 109.8 899.512 114.5C899.512 119.2 900.412 123.35 902.212 126.95C904.112 130.45 906.662 133.25 909.862 135.35C913.162 137.35 916.912 138.35 921.112 138.35Z" fill="white"/>
<path d="M856.162 152V77H872.812V152H856.162ZM864.562 62.75C861.862 62.75 859.512 61.8 857.512 59.9C855.612 57.9 854.662 55.55 854.662 52.85C854.662 50.15 855.612 47.85 857.512 45.95C859.512 44.05 861.862 43.1 864.562 43.1C867.262 43.1 869.562 44.05 871.462 45.95C873.462 47.85 874.462 50.15 874.462 52.85C874.462 55.55 873.462 57.9 871.462 59.9C869.562 61.8 867.262 62.75 864.562 62.75Z" fill="white"/>
<path d="M826.639 152L825.889 138.05V47H842.539V152H826.639ZM802.189 153.8C795.389 153.8 789.439 152.2 784.339 149C779.339 145.7 775.389 141.1 772.489 135.2C769.689 129.3 768.289 122.4 768.289 114.5C768.289 106.5 769.689 99.6 772.489 93.8C775.389 87.9 779.339 83.35 784.339 80.15C789.439 76.85 795.389 75.2 802.189 75.2C808.489 75.2 813.889 76.85 818.389 80.15C822.989 83.35 826.489 87.9 828.889 93.8C831.289 99.6 832.489 106.5 832.489 114.5C832.489 122.4 831.289 129.3 828.889 135.2C826.489 141.1 822.989 145.7 818.389 149C813.889 152.2 808.489 153.8 802.189 153.8ZM806.389 138.5C810.189 138.5 813.539 137.5 816.439 135.5C819.439 133.4 821.739 130.55 823.339 126.95C825.039 123.35 825.889 119.2 825.889 114.5C825.889 109.8 825.039 105.65 823.339 102.05C821.739 98.45 819.439 95.65 816.439 93.65C813.539 91.65 810.139 90.65 806.239 90.65C802.239 90.65 798.689 91.65 795.589 93.65C792.489 95.65 790.039 98.45 788.239 102.05C786.539 105.65 785.639 109.8 785.539 114.5C785.639 119.2 786.539 123.35 788.239 126.95C790.039 130.55 792.489 133.4 795.589 135.5C798.789 137.5 802.389 138.5 806.389 138.5Z" fill="white"/>
<path d="M744.07 152L743.17 138.2V77H759.82V152H744.07ZM692.17 115.4V77H708.97V115.4H692.17ZM708.97 115.4C708.97 121.3 709.67 125.9 711.07 129.2C712.47 132.5 714.37 134.8 716.77 136.1C719.27 137.4 722.12 138.05 725.32 138.05C731.02 138.15 735.42 136.3 738.52 132.5C741.62 128.7 743.17 123.25 743.17 116.15H749.47C749.47 124.05 748.27 130.85 745.87 136.55C743.57 142.15 740.27 146.45 735.97 149.45C731.77 152.35 726.67 153.8 720.67 153.8C714.77 153.8 709.67 152.6 705.37 150.2C701.17 147.8 697.92 144.05 695.62 138.95C693.32 133.85 692.17 127.3 692.17 119.3V115.4H708.97Z" fill="white"/>
<path d="M670.784 153.8C662.884 153.8 656.834 151.85 652.634 147.95C648.534 143.95 646.484 138.25 646.484 130.85V53.6H663.134V127.7C663.134 131.2 663.934 133.85 665.534 135.65C667.234 137.45 669.684 138.35 672.884 138.35C673.884 138.35 674.984 138.15 676.184 137.75C677.384 137.35 678.734 136.6 680.234 135.5L686.384 148.25C683.784 150.05 681.184 151.4 678.584 152.3C675.984 153.3 673.384 153.8 670.784 153.8ZM634.034 91.4V77H683.384V91.4H634.034Z" fill="white"/>
<path d="M593.031 153.8C587.531 153.8 582.481 153.15 577.881 151.85C573.381 150.55 569.381 148.75 565.881 146.45C562.481 144.15 559.631 141.6 557.331 138.8C555.131 135.9 553.581 132.9 552.681 129.8L569.781 124.55C571.081 128.25 573.631 131.5 577.431 134.3C581.231 137.1 585.931 138.55 591.531 138.65C598.031 138.65 603.181 137.3 606.981 134.6C610.781 131.9 612.681 128.35 612.681 123.95C612.681 119.95 611.081 116.7 607.881 114.2C604.681 111.6 600.381 109.6 594.981 108.2L582.081 104.9C577.181 103.6 572.731 101.7 568.731 99.2C564.831 96.7 561.731 93.55 559.431 89.75C557.231 85.95 556.131 81.45 556.131 76.25C556.131 66.4499 559.331 58.85 565.731 53.45C572.131 47.95 581.281 45.2 593.181 45.2C599.881 45.2 605.731 46.25 610.731 48.3499C615.831 50.35 620.031 53.15 623.331 56.7499C626.631 60.2499 629.081 64.25 630.681 68.75L613.881 74.1499C612.381 70.15 609.781 66.8499 606.081 64.2499C602.381 61.65 597.781 60.35 592.281 60.35C586.581 60.35 582.081 61.7 578.781 64.3999C575.581 67.0999 573.981 70.85 573.981 75.65C573.981 79.55 575.231 82.5999 577.731 84.7999C580.331 86.8999 583.831 88.5 588.231 89.6L601.131 92.75C610.531 95.05 617.831 99 623.031 104.6C628.231 110.2 630.831 116.4 630.831 123.2C630.831 129.2 629.381 134.5 626.481 139.1C623.581 143.7 619.281 147.3 613.581 149.9C607.981 152.5 601.131 153.8 593.031 153.8Z" fill="white"/>
<path d="M442.448 182V77H458.198L459.248 90.7999V182H442.448ZM482.948 153.8C476.648 153.8 471.198 152.2 466.598 149C462.098 145.7 458.648 141.1 456.248 135.2C453.848 129.3 452.648 122.4 452.648 114.5C452.648 106.5 453.848 99.5999 456.248 93.7999C458.648 87.8999 462.098 83.3499 466.598 80.1499C471.198 76.8499 476.648 75.2 482.948 75.2C489.748 75.2 495.648 76.8499 500.648 80.1499C505.748 83.3499 509.698 87.8999 512.498 93.7999C515.398 99.5999 516.848 106.5 516.848 114.5C516.848 122.4 515.398 129.3 512.498 135.2C509.698 141.1 505.748 145.7 500.648 149C495.648 152.2 489.748 153.8 482.948 153.8ZM478.748 138.5C482.748 138.5 486.298 137.5 489.398 135.5C492.498 133.4 494.948 130.55 496.748 126.95C498.648 123.35 499.598 119.2 499.598 114.5C499.598 109.8 498.698 105.65 496.898 102.05C495.198 98.45 492.798 95.6499 489.698 93.6499C486.598 91.65 482.998 90.65 478.898 90.65C475.098 90.65 471.698 91.65 468.698 93.6499C465.698 95.6499 463.348 98.45 461.648 102.05C460.048 105.65 459.248 109.8 459.248 114.5C459.248 119.2 460.048 123.35 461.648 126.95C463.348 130.55 465.648 133.4 468.548 135.5C471.548 137.5 474.948 138.5 478.748 138.5Z" fill="white"/>
<path d="M411.248 152V77H427.898V152H411.248ZM419.648 62.75C416.948 62.75 414.598 61.8 412.598 59.9C410.698 57.9 409.748 55.55 409.748 52.85C409.748 50.15 410.698 47.85 412.598 45.95C414.598 44.05 416.948 43.1 419.648 43.1C422.348 43.1 424.648 44.05 426.548 45.95C428.548 47.85 429.548 50.15 429.548 52.85C429.548 55.55 428.548 57.9 426.548 59.9C424.648 61.8 422.348 62.75 419.648 62.75Z" fill="white"/>
<path d="M331.533 152V47H348.333V152H331.533ZM382.383 152V113.6H399.183V152H382.383ZM382.383 113.6C382.383 107.6 381.683 103 380.283 99.8C378.883 96.5 376.933 94.2 374.433 92.9C372.033 91.6 369.233 90.95 366.033 90.95C360.333 90.85 355.933 92.7 352.833 96.5C349.833 100.3 348.333 105.75 348.333 112.85H341.883C341.883 104.95 343.033 98.2 345.333 92.6C347.733 86.9 351.083 82.6 355.383 79.7C359.683 76.7 364.783 75.2 370.683 75.2C376.583 75.2 381.683 76.4 385.983 78.8C390.283 81.2 393.533 84.95 395.733 90.05C398.033 95.05 399.183 101.6 399.183 109.7V113.6H382.383Z" fill="white"/>
<path d="M283.48 153.8C277.98 153.8 272.93 153.15 268.33 151.85C263.83 150.55 259.83 148.75 256.33 146.45C252.93 144.15 250.08 141.6 247.78 138.8C245.58 135.9 244.03 132.9 243.13 129.8L260.23 124.55C261.53 128.25 264.08 131.5 267.88 134.3C271.68 137.1 276.38 138.55 281.98 138.65C288.48 138.65 293.63 137.3 297.43 134.6C301.23 131.9 303.13 128.35 303.13 123.95C303.13 119.95 301.53 116.7 298.33 114.2C295.13 111.6 290.83 109.6 285.43 108.2L272.53 104.9C267.63 103.6 263.18 101.7 259.18 99.2C255.28 96.7 252.18 93.55 249.88 89.75C247.68 85.95 246.58 81.45 246.58 76.25C246.58 66.4499 249.78 58.85 256.18 53.45C262.58 47.95 271.73 45.2 283.63 45.2C290.33 45.2 296.18 46.25 301.18 48.3499C306.28 50.35 310.48 53.15 313.78 56.7499C317.08 60.2499 319.53 64.25 321.13 68.75L304.33 74.1499C302.83 70.15 300.23 66.8499 296.53 64.2499C292.83 61.65 288.23 60.35 282.73 60.35C277.03 60.35 272.53 61.7 269.23 64.3999C266.03 67.0999 264.43 70.85 264.43 75.65C264.43 79.55 265.68 82.5999 268.18 84.7999C270.78 86.8999 274.28 88.5 278.68 89.6L291.58 92.75C300.98 95.05 308.28 99 313.48 104.6C318.68 110.2 321.28 116.4 321.28 123.2C321.28 129.2 319.83 134.5 316.93 139.1C314.03 143.7 309.73 147.3 304.03 149.9C298.43 152.5 291.58 153.8 283.48 153.8Z" fill="white"/>
<rect width="195" height="195" rx="97.5" fill="#5BFF79" fill-opacity="0.5"/>
<rect x="30" y="30" width="135" height="135" rx="67.5" fill="#5BFF79" fill-opacity="0.5"/>
<rect x="60" y="59" width="76" height="76" rx="38" fill="#5BFF79" fill-opacity="0.5"/>
</svg>
